<svg width="283" height="69" viewBox="0 0 283 69" fill="none" xmlns="http://www.w3.org/2000/svg">
<path fill-rule="evenodd" clip-rule="evenodd" d="M47.4201 16.9032L30.8954 33.4279L49.0538 51.5863L65.5785 35.0616L47.4201 16.9032ZM48.8116 15.5117L68.3586 35.0587L67.3428 36.0746L67.3457 36.0774L50.4453 52.9778L64.3233 66.8558L97.7511 33.4279L64.3233 0L48.8116 15.5117Z" fill="#42A1F9"/>
<path d="M0 34.9473L33.4279 1.51947L66.8558 34.9473L33.4279 68.3752L0 34.9473Z" fill="#14212A"/>
<path d="M126.825 65.7506H254.783V67.3401H126.825V65.7506Z" fill="#42A1F9"/>
<path d="M115.924 41.9557C115.398 42.0353 115.008 42.1707 114.753 42.3618C114.514 42.5529 114.347 42.8555 114.251 43.2696C114.172 43.6837 114.132 44.2969 114.132 45.1091V58.4396L113.558 58.4157L112.913 58.4396L102.545 45.3002V54.4739C102.545 55.4136 102.593 56.1064 102.689 56.5523C102.784 56.9823 102.991 57.3008 103.31 57.5079C103.628 57.699 104.146 57.8344 104.863 57.914V58.3918C104.241 58.344 103.381 58.3201 102.283 58.3201C101.407 58.3201 100.714 58.344 100.204 58.3918V57.914C100.73 57.8344 101.112 57.699 101.351 57.5079C101.606 57.3168 101.773 57.0142 101.852 56.6001C101.948 56.186 101.996 55.5728 101.996 54.7606V44.0102C101.996 43.405 101.948 42.967 101.852 42.6963C101.773 42.4255 101.606 42.2424 101.351 42.1468C101.112 42.0512 100.73 41.9875 100.204 41.9557V41.4779C100.714 41.5257 101.407 41.5496 102.283 41.5496C103.079 41.5496 103.764 41.5257 104.337 41.4779L113.582 52.8733V45.3958C113.582 44.4561 113.535 43.7713 113.439 43.3413C113.343 42.8953 113.136 42.5768 112.818 42.3857C112.499 42.1787 111.982 42.0353 111.265 41.9557V41.4779C111.886 41.5257 112.746 41.5496 113.845 41.5496C114.737 41.5496 115.43 41.5257 115.924 41.4779V41.9557Z" fill="#14212A"/>
<path d="M129.775 55.2861C129.775 56.194 129.83 57.2292 129.942 58.3918C128.907 58.344 127.163 58.3201 124.71 58.3201C121.429 58.3201 118.961 58.344 117.304 58.3918V57.914C117.846 57.8822 118.236 57.8185 118.475 57.7229C118.714 57.6273 118.873 57.4442 118.953 57.1734C119.048 56.9027 119.096 56.4647 119.096 55.8595V46.3992C119.096 45.794 119.048 45.356 118.953 45.0852C118.873 44.8145 118.706 44.6313 118.451 44.5358C118.212 44.4402 117.83 44.3765 117.304 44.3447V43.8669C118.961 43.9146 121.429 43.9385 124.71 43.9385C126.94 43.9385 128.524 43.9146 129.464 43.8669C129.353 44.9339 129.297 45.8895 129.297 46.7336C129.297 47.3548 129.321 47.8485 129.369 48.2148H128.819C128.58 46.8451 128.166 45.8736 127.577 45.3002C126.988 44.711 126.175 44.4163 125.14 44.4163H124.256C123.842 44.4163 123.532 44.4561 123.324 44.5358C123.117 44.5995 122.966 44.7428 122.871 44.9658C122.791 45.1728 122.751 45.5073 122.751 45.9692V50.8427H123.874C124.607 50.8427 125.156 50.5878 125.522 50.0782C125.905 49.5526 126.159 48.9474 126.287 48.2626H126.836C126.789 48.8041 126.765 49.4252 126.765 50.126V51.0816C126.765 51.7982 126.812 52.7379 126.908 53.9005H126.358C126.247 53.152 125.992 52.5388 125.594 52.061C125.212 51.5673 124.638 51.3205 123.874 51.3205H122.751V56.2895C122.751 56.7514 122.791 57.0938 122.871 57.3168C122.966 57.5238 123.117 57.6672 123.324 57.7468C123.532 57.8105 123.842 57.8423 124.256 57.8423H125.283C126.414 57.8423 127.298 57.5159 127.935 56.8629C128.588 56.2099 129.042 55.111 129.297 53.5661H129.846C129.799 54.012 129.775 54.5854 129.775 55.2861Z" fill="#14212A"/>
<path d="M145.049 56.6956C145.368 57.1416 145.623 57.4442 145.814 57.6034C146.005 57.7627 146.244 57.8583 146.53 57.8901V58.3918C145.001 58.3281 143.974 58.2962 143.449 58.2962C142.939 58.2962 141.848 58.3201 140.176 58.3679C140.048 58.3838 139.873 58.3918 139.65 58.3918V57.8901C140.176 57.8901 140.558 57.8662 140.797 57.8185C141.036 57.7548 141.155 57.6512 141.155 57.5079C141.155 57.3964 141.091 57.2531 140.964 57.0779L137.596 52.3477L135.684 54.7367C135.143 55.4215 134.872 56.0028 134.872 56.4806C134.872 56.9106 135.047 57.2531 135.398 57.5079C135.764 57.7468 136.258 57.8822 136.879 57.914V58.3918C135.971 58.344 134.785 58.3201 133.319 58.3201C132.539 58.3201 131.862 58.344 131.289 58.3918V57.914C131.767 57.7229 132.292 57.4044 132.865 56.9584C133.439 56.4966 133.917 56.0267 134.299 55.5489L137.261 51.8938L132.722 45.5391C132.388 45.0773 132.133 44.7667 131.958 44.6074C131.782 44.4482 131.544 44.3606 131.241 44.3447V43.843C132.834 43.9067 133.861 43.9385 134.323 43.9385C134.944 43.9385 136.043 43.9146 137.62 43.8669C137.747 43.8509 137.914 43.843 138.121 43.843V44.3447C137.596 44.3447 137.213 44.3765 136.974 44.4402C136.752 44.5039 136.64 44.6074 136.64 44.7508C136.64 44.8623 136.696 44.9976 136.807 45.1569L139.865 49.4332L141.37 47.5698C141.959 46.869 142.254 46.224 142.254 45.6347C142.254 45.2525 142.119 44.9499 141.848 44.7269C141.593 44.488 141.211 44.3606 140.701 44.3447V43.8669C141.609 43.9146 142.604 43.9385 143.688 43.9385C144.595 43.9385 145.272 43.9146 145.718 43.8669V44.3447C145.304 44.4721 144.866 44.711 144.404 45.0613C143.942 45.4117 143.512 45.8258 143.114 46.3036L140.176 49.8871L145.049 56.6956Z" fill="#14212A"/>
<path d="M162.048 44.3447C161.491 44.4243 161.077 44.5597 160.806 44.7508C160.535 44.9419 160.352 45.2445 160.256 45.6586C160.161 46.0727 160.113 46.6858 160.113 47.4981V51.9177C160.113 53.0166 160.033 53.9563 159.874 54.7367C159.731 55.5012 159.484 56.1701 159.134 56.7434C158.751 57.3486 158.178 57.8344 157.413 58.2007C156.665 58.5511 155.813 58.7263 154.857 58.7263C153.058 58.7263 151.656 58.3759 150.653 57.6751C150.095 57.261 149.673 56.8151 149.387 56.3373C149.1 55.8595 148.893 55.2861 148.765 54.6172C148.654 53.9324 148.598 53.0564 148.598 51.9894V46.3992C148.598 45.794 148.55 45.356 148.455 45.0852C148.375 44.8145 148.208 44.6313 147.953 44.5358C147.714 44.4402 147.332 44.3765 146.806 44.3447V43.8669C147.603 43.9146 148.813 43.9385 150.438 43.9385C151.983 43.9385 153.185 43.9146 154.045 43.8669V44.3447C153.503 44.3765 153.113 44.4402 152.874 44.5358C152.636 44.6313 152.468 44.8145 152.373 45.0852C152.293 45.356 152.253 45.794 152.253 46.3992V52.3955C152.253 53.5422 152.325 54.4898 152.468 55.2384C152.628 55.9869 152.954 56.5921 153.448 57.054C153.941 57.5159 154.674 57.7468 155.646 57.7468C157.095 57.7468 158.106 57.261 158.68 56.2895C159.269 55.3021 159.564 53.9324 159.564 52.1805V47.7848C159.564 46.861 159.508 46.1762 159.396 45.7303C159.285 45.2843 159.07 44.9658 158.751 44.7747C158.433 44.5676 157.931 44.4243 157.246 44.3447V43.8669C157.867 43.9146 158.727 43.9385 159.826 43.9385C160.782 43.9385 161.522 43.9146 162.048 43.8669V44.3447Z" fill="#14212A"/>
<path d="M169.193 43.5324C169.925 43.5324 170.546 43.612 171.056 43.7713C171.582 43.9306 172.075 44.1456 172.537 44.4163C172.712 44.5119 172.864 44.5915 172.991 44.6552C173.134 44.7189 173.254 44.7508 173.349 44.7508C173.493 44.7508 173.604 44.6711 173.684 44.5119C173.763 44.3367 173.827 44.0659 173.875 43.6996H174.424C174.345 44.6552 174.305 46.3116 174.305 48.6687H173.756C173.58 47.2353 173.118 46.1125 172.37 45.3002C171.621 44.4721 170.642 44.058 169.431 44.058C168.635 44.058 167.99 44.2332 167.496 44.5836C167.019 44.9339 166.78 45.3878 166.78 45.9453C166.78 46.3753 166.907 46.7734 167.162 47.1398C167.433 47.4901 167.783 47.8166 168.213 48.1192C168.643 48.4218 169.272 48.82 170.1 49.3137L170.626 49.6243C171.582 50.1658 172.362 50.6595 172.967 51.1054C173.572 51.5355 174.074 52.0531 174.472 52.6583C174.87 53.2476 175.069 53.9165 175.069 54.665C175.069 55.971 174.528 56.9744 173.445 57.6751C172.362 58.3759 170.937 58.7263 169.169 58.7263C168.404 58.7263 167.743 58.6387 167.186 58.4635C166.628 58.3042 166.063 58.0812 165.49 57.7946C165.092 57.6034 164.813 57.5079 164.654 57.5079C164.51 57.5079 164.399 57.5955 164.319 57.7707C164.239 57.9299 164.176 58.1927 164.128 58.559H163.578C163.642 57.6672 163.674 55.7241 163.674 52.7299H164.224C164.335 54.4182 164.789 55.748 165.585 56.7195C166.397 57.691 167.536 58.1768 169.001 58.1768C169.718 58.1768 170.339 57.9936 170.865 57.6273C171.39 57.261 171.653 56.7195 171.653 56.0028C171.653 55.3658 171.406 54.8163 170.913 54.3544C170.419 53.8926 169.575 53.3113 168.38 52.6105C166.867 51.7505 165.705 50.9303 164.892 50.1499C164.096 49.3695 163.698 48.4537 163.698 47.4025C163.698 46.1603 164.208 45.2047 165.227 44.5358C166.262 43.8669 167.584 43.5324 169.193 43.5324Z" fill="#14212A"/>
<path d="M185.584 41.1434C186.539 41.1434 187.352 41.2788 188.021 41.5496C188.69 41.8203 189.343 42.2025 189.98 42.6963C190.155 42.8396 190.306 42.9113 190.434 42.9113C190.752 42.9113 190.959 42.4335 191.055 41.4779H191.604C191.54 42.5609 191.509 44.488 191.509 47.2592H190.959C190.816 46.0806 190.625 45.1808 190.386 44.5597C190.147 43.9385 189.741 43.397 189.167 42.9352C188.769 42.5529 188.307 42.2663 187.782 42.0751C187.256 41.8681 186.707 41.7646 186.133 41.7646C184.525 41.7646 183.33 42.5529 182.55 44.1296C181.77 45.6904 181.379 47.6414 181.379 49.9826C181.379 52.3079 181.785 54.2509 182.598 55.8117C183.41 57.3725 184.62 58.1529 186.229 58.1529C186.77 58.1529 187.304 58.0574 187.83 57.8662C188.371 57.6592 188.825 57.3646 189.191 56.9823C189.781 56.5364 190.187 55.9789 190.41 55.31C190.649 54.6411 190.832 53.6616 190.959 52.3716H191.509C191.509 55.2543 191.54 57.261 191.604 58.3918H191.055C191.007 57.8822 190.935 57.5238 190.84 57.3168C190.76 57.0938 190.641 56.9823 190.481 56.9823C190.354 56.9823 190.187 57.046 189.98 57.1734C189.263 57.6831 188.578 58.0733 187.925 58.344C187.272 58.5989 186.484 58.7263 185.56 58.7263C183.872 58.7263 182.391 58.3838 181.117 57.699C179.858 57.0142 178.879 56.0267 178.178 54.7367C177.477 53.4307 177.127 51.8779 177.127 50.0782C177.127 48.3263 177.485 46.7734 178.202 45.4197C178.919 44.0659 179.914 43.0148 181.188 42.2663C182.478 41.5177 183.943 41.1434 185.584 41.1434Z" fill="#14212A"/>
<path d="M202.022 43.5324C203.63 43.5324 205.04 43.827 206.25 44.4163C207.461 44.9897 208.4 45.8417 209.069 46.9725C209.738 48.0874 210.073 49.4252 210.073 50.986C210.073 52.5149 209.73 53.8687 209.045 55.0472C208.361 56.2099 207.405 57.1177 206.179 57.7707C204.952 58.4077 203.559 58.7263 201.998 58.7263C200.389 58.7263 198.98 58.4396 197.77 57.8662C196.559 57.277 195.619 56.4249 194.951 55.31C194.282 54.1793 193.947 52.8335 193.947 51.2727C193.947 49.7437 194.29 48.3979 194.974 47.2353C195.659 46.0568 196.615 45.1489 197.841 44.5119C199.068 43.8589 200.461 43.5324 202.022 43.5324ZM201.926 43.9624C201.098 43.9624 200.366 44.273 199.728 44.8941C199.107 45.4993 198.622 46.3514 198.271 47.4503C197.937 48.5333 197.77 49.7756 197.77 51.1771C197.77 52.5946 197.961 53.8448 198.343 54.9278C198.725 56.0108 199.243 56.8469 199.896 57.4362C200.565 58.0096 201.297 58.2962 202.094 58.2962C202.922 58.2962 203.646 57.9936 204.268 57.3884C204.905 56.7673 205.39 55.9152 205.725 54.8322C206.075 53.7333 206.25 52.4831 206.25 51.0816C206.25 49.6641 206.059 48.4139 205.677 47.3309C205.295 46.2479 204.769 45.4197 204.1 44.8463C203.447 44.2571 202.723 43.9624 201.926 43.9624Z" fill="#14212A"/>
<path d="M230.86 43.9385C231.688 43.9385 232.333 43.9146 232.795 43.8669V44.3447C231.919 44.6632 231.179 45.6506 230.573 47.307L226.56 58.4396C226.449 58.4237 226.265 58.4157 226.011 58.4157C225.772 58.4157 225.588 58.4237 225.461 58.4396L221.878 49.6482L218.366 58.4396C218.238 58.4237 218.055 58.4157 217.816 58.4157C217.577 58.4157 217.394 58.4237 217.267 58.4396L211.939 45.8736C211.509 44.8862 211.008 44.3765 210.434 44.3447V43.8669C211.183 43.9146 212.226 43.9385 213.564 43.9385C215.125 43.9385 216.287 43.9146 217.052 43.8669V44.3447C216.256 44.3924 215.857 44.7189 215.857 45.3241C215.857 45.6267 215.937 45.9692 216.096 46.3514L219.345 54.4739L221.591 48.9554L220.349 45.8736C220.142 45.3639 219.903 44.9897 219.632 44.7508C219.361 44.496 219.098 44.3606 218.844 44.3447V43.8669C219.576 43.9146 220.619 43.9385 221.973 43.9385C223.598 43.9385 224.808 43.9146 225.604 43.8669V44.3447C225.079 44.3765 224.697 44.4641 224.458 44.6074C224.235 44.7349 224.123 44.9578 224.123 45.2764C224.123 45.563 224.203 45.9214 224.362 46.3514L227.396 54.5217L229.283 49.1943C229.745 47.952 229.976 46.9566 229.976 46.2081C229.976 45.571 229.817 45.1091 229.498 44.8225C229.18 44.5358 228.718 44.3765 228.113 44.3447V43.8669C229.021 43.9146 229.936 43.9385 230.86 43.9385Z" fill="#14212A"/>
<path d="M241.193 43.5324C242.801 43.5324 244.211 43.827 245.421 44.4163C246.632 44.9897 247.571 45.8417 248.24 46.9725C248.909 48.0874 249.243 49.4252 249.243 50.986C249.243 52.5149 248.901 53.8687 248.216 55.0472C247.531 56.2099 246.576 57.1177 245.349 57.7707C244.123 58.4077 242.73 58.7263 241.169 58.7263C239.56 58.7263 238.151 58.4396 236.94 57.8662C235.73 57.277 234.79 56.4249 234.121 55.31C233.452 54.1793 233.118 52.8335 233.118 51.2727C233.118 49.7437 233.46 48.3979 234.145 47.2353C234.83 46.0568 235.786 45.1489 237.012 44.5119C238.238 43.8589 239.632 43.5324 241.193 43.5324ZM241.097 43.9624C240.269 43.9624 239.536 44.273 238.899 44.8941C238.278 45.4993 237.792 46.3514 237.442 47.4503C237.107 48.5333 236.94 49.7756 236.94 51.1771C236.94 52.5946 237.131 53.8448 237.514 54.9278C237.896 56.0108 238.413 56.8469 239.066 57.4362C239.735 58.0096 240.468 58.2962 241.264 58.2962C242.092 58.2962 242.817 57.9936 243.438 57.3884C244.075 56.7673 244.561 55.9152 244.896 54.8322C245.246 53.7333 245.421 52.4831 245.421 51.0816C245.421 49.6641 245.23 48.4139 244.848 47.3309C244.466 46.2479 243.94 45.4197 243.271 44.8463C242.618 44.2571 241.893 43.9624 241.097 43.9624Z" fill="#14212A"/>
<path d="M266.301 57.3884C265.918 57.8344 265.488 58.1688 265.011 58.3918C264.533 58.6148 263.936 58.7263 263.219 58.7263C262.311 58.7263 261.61 58.5511 261.117 58.2007C260.623 57.8503 260.304 57.3805 260.161 56.7912L259.468 53.9722C259.293 53.0803 259.022 52.491 258.656 52.2044C258.306 51.9018 257.78 51.7505 257.079 51.7505H256.291V55.8595C256.291 56.4647 256.331 56.9027 256.41 57.1734C256.506 57.4442 256.673 57.6273 256.912 57.7229C257.167 57.8185 257.557 57.8822 258.083 57.914V58.3918C257.175 58.344 255.877 58.3201 254.189 58.3201C252.707 58.3201 251.593 58.344 250.844 58.3918V57.914C251.386 57.8822 251.776 57.8185 252.015 57.7229C252.254 57.6273 252.413 57.4442 252.492 57.1734C252.588 56.9027 252.636 56.4647 252.636 55.8595V46.3992C252.636 45.794 252.588 45.356 252.492 45.0852C252.413 44.8145 252.254 44.6313 252.015 44.5358C251.776 44.4402 251.386 44.3765 250.844 44.3447V43.8669C251.593 43.9146 252.66 43.9385 254.045 43.9385L256.769 43.9146C257.087 43.8987 257.446 43.8908 257.844 43.8908C259.978 43.8908 261.571 44.2172 262.622 44.8702C263.689 45.5073 264.222 46.3992 264.222 47.5459C264.222 48.5333 263.8 49.4013 262.956 50.1499C262.112 50.8984 260.703 51.3762 258.728 51.5832C258.951 51.5832 259.182 51.6071 259.42 51.6549C260.567 51.7823 261.467 52.0371 262.12 52.4194C262.789 52.8016 263.227 53.4068 263.434 54.235L263.936 56.3612C264.047 56.8071 264.183 57.1257 264.342 57.3168C264.501 57.5079 264.7 57.6034 264.939 57.6034C265.273 57.6034 265.616 57.4283 265.966 57.0779L266.301 57.3884ZM257.533 44.3447C257.183 44.3447 256.92 44.4004 256.745 44.5119C256.57 44.6234 256.45 44.8225 256.386 45.1091C256.323 45.3958 256.291 45.8258 256.291 46.3992V51.2727H257.318C258.497 51.2727 259.301 50.9701 259.731 50.3649C260.177 49.7597 260.4 48.9076 260.4 47.8087C260.4 46.646 260.177 45.778 259.731 45.2047C259.301 44.6313 258.568 44.3447 257.533 44.3447Z" fill="#14212A"/>
<path d="M281.376 56.4567C281.678 56.8549 281.941 57.1575 282.164 57.3646C282.387 57.5716 282.666 57.7547 283 57.914V58.3918C281.901 58.344 280.683 58.3201 279.345 58.3201C278.214 58.3201 277.131 58.344 276.096 58.3918V57.914C276.606 57.8981 276.964 57.8583 277.171 57.7946C277.378 57.7149 277.481 57.6034 277.481 57.4601C277.481 57.3168 277.394 57.1097 277.219 56.839L274.089 52.3477C273.818 51.9655 273.548 51.6788 273.277 51.4877C273.006 51.2806 272.648 51.1692 272.202 51.1532V55.8595C272.202 56.4647 272.242 56.9027 272.321 57.1734C272.417 57.4442 272.584 57.6273 272.823 57.7229C273.062 57.8185 273.452 57.8822 273.994 57.914V58.3918C273.181 58.344 272.003 58.3201 270.458 58.3201C268.802 58.3201 267.567 58.344 266.755 58.3918V57.914C267.297 57.8822 267.687 57.8185 267.926 57.7229C268.165 57.6273 268.324 57.4442 268.403 57.1734C268.499 56.9027 268.547 56.4647 268.547 55.8595V46.3992C268.547 45.794 268.499 45.356 268.403 45.0852C268.324 44.8145 268.157 44.6313 267.902 44.5358C267.663 44.4402 267.281 44.3765 266.755 44.3447V43.8669C267.567 43.9146 268.802 43.9385 270.458 43.9385C272.003 43.9385 273.181 43.9146 273.994 43.8669V44.3447C273.452 44.3765 273.062 44.4402 272.823 44.5358C272.584 44.6313 272.417 44.8145 272.321 45.0852C272.242 45.356 272.202 45.794 272.202 46.3992V50.6754C272.887 50.6117 273.516 50.4365 274.089 50.1499C274.663 49.8632 275.276 49.4093 275.929 48.7881L277.386 47.307C278.007 46.7018 278.318 46.1523 278.318 45.6586C278.318 45.2764 278.15 44.9658 277.816 44.7269C277.481 44.488 277.051 44.3526 276.526 44.3208V43.8669C277.673 43.9146 278.899 43.9385 280.205 43.9385C281.049 43.9385 281.758 43.9146 282.331 43.8669V44.3208C281.774 44.4482 281.24 44.6711 280.73 44.9897C280.221 45.2923 279.671 45.7223 279.082 46.2797L276.144 49.1704L281.376 56.4567Z" fill="#14212A"/>
</svg>
